<svg fill-rule="evenodd" stroke-linejoin="round" stroke-miterlimit="2" aria-labelledby="logoTitle" clip-rule="evenodd" viewBox="0 0 72 72"><rect width="72" height="72" fill="#56DDAC" rx="8" ry="8"/><path fill="#f8fcfb" stroke="#f8fcfb" stroke-width=".355963" d="M8.3238169 71.235631c.2046251-.819138 2.6374871-6.626502 4.7785691-11.406708 2.1914-4.892518 2.150033-4.700458 1.539537-7.148599-.762049-3.055882-.715761-8.031025.0993-10.672504 2.942514-9.536321 10.582923-15.999477 27.173403-22.986466 5.404377-2.276016 8.371005-3.735553 10.622046-5.225876 3.968197-2.627196 8.096046-7.185992 9.415836-10.3988672.278349-.6776066.591192-1.2258752.695203-1.2183716.324411.023401.163751 9.6282698-.217016 12.9742328-2.358586 20.726169-9.543882 34.206973-21.374416 40.101958-6.827646 3.402117-17.590716 4.662596-22.604194 2.647213-.708913-.284979-1.455055-.518143-1.658104-.518143-.763467 0-3.501062 7.150128-4.286889 11.196625-.243949 1.256194-.613722 2.979186-.668514 3.241898-1.222097-.0089-.07859-.0025-1.817435-.0025L8.1779764 71.82Z"/></svg>