<svg fill-rule="evenodd" stroke-linejoin="round" stroke-miterlimit="2" aria-labelledby="logoTitle" clip-rule="evenodd" viewBox="0 0 72 72"><rect width="72" height="72" fill="#56DDAC" rx="8" ry="8"/><path fill="#f8fcfb" stroke="#f8fcfb" stroke-width=".3718" d="M6.3450375 71.227842c.2232899-.818952 2.8780559-6.624993 5.2144295-11.404112 2.39128-4.891405 2.346141-4.699388 1.679962-7.146973-.831558-3.055183-.78105-8.029195.108346-10.67007 3.210904-9.534155 11.548206-15.995838 29.651928-22.981236 5.897317-2.275497 9.134535-3.734703 11.590896-5.224685 4.330142-2.626599 8.834498-7.1843571 10.274667-10.3965008.303738-.6774529.645114-1.2255969.758615-1.2180942.353998.023392.178684 9.626078-.236812 12.97128-2.573713 20.721449-10.41439 34.199184-23.324004 40.092828-7.450403 3.401342-19.195189 4.661535-24.66595 2.646611-.773574-.284915-1.587776-.518026-1.809342-.518026-.833106 0-3.8204 7.1485-4.677903 11.194075-.2662 1.255909-.669701 2.978509-.729489 3.241163-1.3335667-.009-.08574-.0024-1.983207-.0024L6.1858917 71.612Z"/></svg>