<?xml version="1.0" encoding="UTF-8"?>
<svg
  xmlns="http://www.w3.org/2000/svg"
  width="72" height="72"
  viewBox="0 0 72 72"
  aria-labelledby="logoTitle"
  role="img"
  fill-rule="evenodd"
  clip-rule="evenodd"
  stroke-linejoin="round"
  stroke-miterlimit="2">

  <title id="logoTitle">io.github.grisha765.yggdrasil-go-gtk</title>

  <rect x="0" y="0" width="72" height="72" rx="8" ry="8" fill="#56DDAC"/>

  <path
    transform="translate(52 14)"
    fill="#F8FCFB"
    stroke="#F8FCFB" stroke-width="0.3"
    d="M0 0C.33 0 .66 0 1 0 1.88 12.02-1.16 23.48-7.69 33.63c-3.82 3.93-9.69 7.13-15.25 7.51-.68 0-1.36 0-2.06 0-1.02 0-1.02 0-2.06 0-1.94-.13-1.94-.13-4.94-1.13-.66 3.30-1.32 6.60-2 10-.99 0-1.98 0-3 0 .47-1.22.95-2.44 1.44-3.69 1.38-4.04 1.80-7.68 2.00-11.94.41-6.46 1.29-10.13 6.01-14.81 3.31-2.74 6.90-4.78 10.71-6.73.75-.39 1.50-.77 2.28-1.17 1.52-.77 3.04-1.51 4.57-2.24C-5.06 6.96-2.73 4.80 0 0Z"/>

  <path
    transform="translate(19 50)"
    fill="#DBF2EB"
    d="M0 0C1.62 2.50 2.07 3.59 1.54 6.58 1.24 7.46.94 8.34.63 9.25.33 10.14.03 11.03-.27 11.95c-.24.68-.48 1.35-.73 2.05H-4c.31-.89.31-.89.62-1.79C-2.00 8.16-.68 4.23 0 0Z"/>
</svg>

