<?xml version="1.0" encoding="UTF-8" standalone="no"?>
<svg
   width="72"
   height="72"
   viewBox="0 0 72 72"
   aria-labelledby="logoTitle"
   role="img"
   fill-rule="evenodd"
   clip-rule="evenodd"
   stroke-linejoin="round"
   stroke-miterlimit="2"
   version="1.1"
   id="svg1"
   sodipodi:docname="io.github.grisha765.yggdrasil-go-gtk.bak.svg"
   inkscape:version="1.4.2 (ebf0e940d0, 2025-05-08)"
   xmlns:inkscape="http://www.inkscape.org/namespaces/inkscape"
   xmlns:sodipodi="http://sodipodi.sourceforge.net/DTD/sodipodi-0.dtd"
   xmlns="http://www.w3.org/2000/svg"
   xmlns:svg="http://www.w3.org/2000/svg">
  <defs
     id="defs1" />
  <sodipodi:namedview
     id="namedview1"
     pagecolor="#ffffff"
     bordercolor="#000000"
     borderopacity="0.25"
     inkscape:showpageshadow="2"
     inkscape:pageopacity="0.0"
     inkscape:pagecheckerboard="0"
     inkscape:deskcolor="#d1d1d1"
     inkscape:zoom="46.160131"
     inkscape:cx="6.574938"
     inkscape:cy="70.634548"
     inkscape:window-width="1536"
     inkscape:window-height="830"
     inkscape:window-x="0"
     inkscape:window-y="0"
     inkscape:window-maximized="0"
     inkscape:current-layer="svg1" />
  <title
     id="logoTitle">io.github.grisha765.yggdrasil-go-gtk</title>
  <rect
     x="0"
     y="0"
     width="72"
     height="72"
     rx="8"
     ry="8"
     fill="#56DDAC"
     id="rect1" />
  <path
     fill="#f8fcfb"
     stroke="#f8fcfb"
     stroke-width="0.355963"
     d="m 8.3238169,71.235631 c 0.2046251,-0.819138 2.6374871,-6.626502 4.7785691,-11.406708 2.1914,-4.892518 2.150033,-4.700458 1.539537,-7.148599 -0.762049,-3.055882 -0.715761,-8.031025 0.0993,-10.672504 2.942514,-9.536321 10.582923,-15.999477 27.173403,-22.986466 5.404377,-2.276016 8.371005,-3.735553 10.622046,-5.225876 C 56.504869,11.168282 60.632718,6.609486 61.952508,3.3966108 62.230857,2.7190042 62.5437,2.1707356 62.647711,2.1782392 62.972122,2.2016402 62.811462,11.806509 62.430695,15.152472 60.072109,35.878641 52.886813,49.359445 41.056279,55.25443 34.228633,58.656547 23.465563,59.917026 18.452085,57.901643 17.743172,57.616664 16.99703,57.3835 16.793981,57.3835 c -0.763467,0 -3.501062,7.150128 -4.286889,11.196625 -0.243949,1.256194 -0.613722,2.979186 -0.668514,3.241898 -1.222097,-0.0089 -0.07859,-0.0025 -1.817435,-0.0025 L 8.1779764,71.82 Z"
     id="path1"
     sodipodi:nodetypes="csscscsscsssscscc" />
</svg>
